{
	"asset":{
		"generator":"Khronos glTF Blender I/O v4.2.60",
		"version":"2.0"
	},
	"scene":0,
	"scenes":[
		{
			"extras":{
				"sun_pos_properties":{
					"day_of_year":9,
					"sun_object":{},
					"object_collection":{}
				}
			},
			"name":"Scene",
			"nodes":[
				0
			]
		}
	],
	"nodes":[
		{
			"mesh":0,
			"name":"Blade",
			"rotation":[
				0.7071068286895752,
				0,
				0,
				0.7071068286895752
			],
			"scale":[
				0.07294346392154694,
				0.014937357045710087,
				1
			],
			"translation":[
				0,
				0.00028391892556101084,
				-0.003034234046936035
			]
		}
	],
	"materials":[
		{
			"doubleSided":true,
			"emissiveFactor":[
				1,
				1,
				1
			],
			"emissiveTexture":{
				"index":0
			},
			"name":"sword",
			"normalTexture":{
				"index":1
			},
			"pbrMetallicRoughness":{
				"baseColorTexture":{
					"index":2
				},
				"metallicRoughnessTexture":{
					"index":3
				}
			}
		}
	],
	"meshes":[
		{
			"name":"Cube.001",
			"primitives":[
				{
					"attributes":{
						"POSITION":0,
						"NORMAL":1,
						"TEXCOORD_0":2,
						"TANGENT":3
					},
					"indices":4,
					"material":0
				}
			]
		}
	],
	"textures":[
		{
			"sampler":0,
			"source":0
		},
		{
			"sampler":0,
			"source":1
		},
		{
			"sampler":0,
			"source":2
		},
		{
			"sampler":0,
			"source":3
		}
	],
	"images":[
		{
			"mimeType":"image/png",
			"name":"sword_color_texture",
			"uri":"../../Models/textures/sword_emission_texture.png"
		},
		{
			"mimeType":"image/png",
			"name":"sword_normal_texture.png",
			"uri":"../../Models/textures/sword_normal_texture.png"
		},
		{
			"mimeType":"image/png",
			"name":"sword_color_texture.png",
			"uri":"../../Models/textures/sword_color_texture.png"
		},
		{
			"mimeType":"image/png",
			"name":"sword_roughness_texture.png",
			"uri":"../../Models/textures/sword_roughness_texture.png"
		}
	],
	"accessors":[
		{
			"bufferView":0,
			"componentType":5126,
			"count":9703,
			"max":[
				1.6332001686096191,
				0.8392986059188843,
				0.8717023134231567
			],
			"min":[
				-1.6332001686096191,
				-0.8773131966590881,
				-0.2202025055885315
			],
			"type":"VEC3"
		},
		{
			"bufferView":1,
			"componentType":5126,
			"count":9703,
			"type":"VEC3"
		},
		{
			"bufferView":2,
			"componentType":5126,
			"count":9703,
			"type":"VEC2"
		},
		{
			"bufferView":3,
			"componentType":5126,
			"count":9703,
			"type":"VEC4"
		},
		{
			"bufferView":4,
			"componentType":5123,
			"count":50712,
			"type":"SCALAR"
		}
	],
	"bufferViews":[
		{
			"buffer":0,
			"byteLength":116436,
			"byteOffset":0,
			"target":34962
		},
		{
			"buffer":0,
			"byteLength":116436,
			"byteOffset":116436,
			"target":34962
		},
		{
			"buffer":0,
			"byteLength":77624,
			"byteOffset":232872,
			"target":34962
		},
		{
			"buffer":0,
			"byteLength":155248,
			"byteOffset":310496,
			"target":34962
		},
		{
			"buffer":0,
			"byteLength":101424,
			"byteOffset":465744,
			"target":34963
		}
	],
	"samplers":[
		{
			"magFilter":9729,
			"minFilter":9987
		}
	],
	"buffers":[
		{
			"byteLength":567168,
			"uri":"sword_runic_turbo_squid-a9283cdde244f62cd297a44f2d7b4b3d.bin"
		}
	]
}
