{
	"asset":{
		"generator":"Khronos glTF Blender I/O v4.2.60",
		"version":"2.0"
	},
	"scene":0,
	"scenes":[
		{
			"name":"Scene",
			"nodes":[
				0,
				1,
				2
			]
		}
	],
	"nodes":[
		{
			"mesh":0,
			"name":"sombrero",
			"rotation":[
				0.00038823706563562155,
				-0.004271047655493021,
				0.99998539686203,
				0.0033169121015816927
			],
			"scale":[
				2.5721802711486816,
				2.5721800327301025,
				2.5721800327301025
			],
			"translation":[
				-3.088029384613037,
				4.231669902801514,
				5.541481018066406
			]
		},
		{
			"mesh":1,
			"name":"tuberia superior",
			"rotation":[
				0.00038823706563562155,
				-0.004271047655493021,
				0.99998539686203,
				0.0033169121015816927
			],
			"scale":[
				2.5721802711486816,
				2.5721800327301025,
				2.5721800327301025
			],
			"translation":[
				4.82951545715332,
				5.301169395446777,
				0.32247740030288696
			]
		},
		{
			"mesh":2,
			"name":"tuberia inferior",
			"scale":[
				2.5721800327301025,
				2.5721800327301025,
				2.5721800327301025
			],
			"translation":[
				3.930324077606201,
				0.25101959705352783,
				0.27782416343688965
			]
		}
	],
	"materials":[
		{
			"alphaMode":"BLEND",
			"doubleSided":true,
			"name":"sombrero.001",
			"pbrMetallicRoughness":{
				"baseColorFactor":[
					0,
					0,
					0,
					2
				],
				"metallicFactor":0
			}
		},
		{
			"alphaMode":"BLEND",
			"doubleSided":true,
			"name":"sombrero",
			"pbrMetallicRoughness":{
				"baseColorFactor":[
					0.3613048493862152,
					0.056128520518541336,
					0.024157652631402016,
					2
				],
				"metallicFactor":0.6880733370780945,
				"roughnessFactor":0.9082568883895874
			}
		}
	],
	"meshes":[
		{
			"name":"sombrero",
			"primitives":[
				{
					"attributes":{
						"POSITION":0,
						"NORMAL":1,
						"TEXCOORD_0":2
					},
					"indices":3,
					"material":0
				}
			]
		},
		{
			"name":"C\u00edrculo.001",
			"primitives":[
				{
					"attributes":{
						"POSITION":4,
						"NORMAL":5,
						"TEXCOORD_0":6
					},
					"indices":3,
					"material":1
				}
			]
		},
		{
			"name":"C\u00edrculo.002",
			"primitives":[
				{
					"attributes":{
						"POSITION":7,
						"NORMAL":8,
						"TEXCOORD_0":9
					},
					"indices":3,
					"material":1
				}
			]
		}
	],
	"accessors":[
		{
			"bufferView":0,
			"componentType":5126,
			"count":444,
			"max":[
				0.7100712060928345,
				0.979853093624115,
				0.27702605724334717
			],
			"min":[
				-0.3683058023452759,
				-0.03267654776573181,
				-0.801351010799408
			],
			"type":"VEC3"
		},
		{
			"bufferView":1,
			"componentType":5126,
			"count":444,
			"type":"VEC3"
		},
		{
			"bufferView":2,
			"componentType":5126,
			"count":444,
			"type":"VEC2"
		},
		{
			"bufferView":3,
			"componentType":5123,
			"count":1332,
			"type":"SCALAR"
		},
		{
			"bufferView":4,
			"componentType":5126,
			"count":444,
			"max":[
				0.7100712060928345,
				0.979853093624115,
				0.27702605724334717
			],
			"min":[
				-0.3683058023452759,
				-0.03267654776573181,
				-0.801351010799408
			],
			"type":"VEC3"
		},
		{
			"bufferView":5,
			"componentType":5126,
			"count":444,
			"type":"VEC3"
		},
		{
			"bufferView":6,
			"componentType":5126,
			"count":444,
			"type":"VEC2"
		},
		{
			"bufferView":7,
			"componentType":5126,
			"count":444,
			"max":[
				0.7100712060928345,
				0.979853093624115,
				0.27702605724334717
			],
			"min":[
				-0.3683058023452759,
				-0.03267654776573181,
				-0.801351010799408
			],
			"type":"VEC3"
		},
		{
			"bufferView":8,
			"componentType":5126,
			"count":444,
			"type":"VEC3"
		},
		{
			"bufferView":9,
			"componentType":5126,
			"count":444,
			"type":"VEC2"
		}
	],
	"bufferViews":[
		{
			"buffer":0,
			"byteLength":5328,
			"byteOffset":0,
			"target":34962
		},
		{
			"buffer":0,
			"byteLength":5328,
			"byteOffset":5328,
			"target":34962
		},
		{
			"buffer":0,
			"byteLength":3552,
			"byteOffset":10656,
			"target":34962
		},
		{
			"buffer":0,
			"byteLength":2664,
			"byteOffset":14208,
			"target":34963
		},
		{
			"buffer":0,
			"byteLength":5328,
			"byteOffset":16872,
			"target":34962
		},
		{
			"buffer":0,
			"byteLength":5328,
			"byteOffset":22200,
			"target":34962
		},
		{
			"buffer":0,
			"byteLength":3552,
			"byteOffset":27528,
			"target":34962
		},
		{
			"buffer":0,
			"byteLength":5328,
			"byteOffset":31080,
			"target":34962
		},
		{
			"buffer":0,
			"byteLength":5328,
			"byteOffset":36408,
			"target":34962
		},
		{
			"buffer":0,
			"byteLength":3552,
			"byteOffset":41736,
			"target":34962
		}
	],
	"buffers":[
		{
			"byteLength":45288,
			"uri":"tuberia-5309739ae1c29dcdb882d996c0d44e7e.bin"
		}
	]
}
